HIERARCHY
ROOT Hips
{
	OFFSET 0.000000 97.167313 0.000000
	CHANNELS 6 Xposition Yposition Zposition Xrotation Yrotation Zrotation
	JOINT Spine
	{
		OFFSET 0.000000 13.784798 0.064400
		CHANNELS 3 Xrotation Yrotation Zrotation
		JOINT Spine1
		{
			OFFSET 0.000000 12.037903 0.404700
			CHANNELS 3 Xrotation Yrotation Zrotation
			JOINT Spine2
			{
				OFFSET 0.000000 17.795601 0.420200
				CHANNELS 3 Xrotation Yrotation Zrotation
				JOINT Neck
				{
					OFFSET 0.000000 39.131302 11.954600
					CHANNELS 3 Xrotation Yrotation Zrotation
					JOINT Head
					{
						OFFSET 0.000000 14.456192 15.627699
						CHANNELS 3 Xrotation Yrotation Zrotation
						JOINT HeadTop_End
						{
							OFFSET 0.000000 15.703506 7.603401
							CHANNELS 3 Xrotation Yrotation Zrotation
							End Site
							{
								OFFSET 0.000000 17.447403 0.000000
							}
						}
					}
				}
				JOINT LeftShoulder
				{
					OFFSET 17.399500 24.608795 1.168800
					CHANNELS 3 Xrotation Yrotation Zrotation
					JOINT LeftArm
					{
						OFFSET 18.980635 5.765305 1.818600
						CHANNELS 3 Xrotation Yrotation Zrotation
						JOINT LeftForeArm
						{
							OFFSET 49.290169 0.000000 0.000000
							CHANNELS 3 Xrotation Yrotation Zrotation
							JOINT LeftHand
							{
								OFFSET 31.562012 0.000000 0.000000
								CHANNELS 3 Xrotation Yrotation Zrotation
								JOINT LeftHandThumb1
								{
									OFFSET 6.133995 -4.388519 7.076070
									CHANNELS 3 Xrotation Yrotation Zrotation
									JOINT LeftHandThumb2
									{
										OFFSET 6.037666 -3.485840 3.485847
										CHANNELS 3 Xrotation Yrotation Zrotation
										JOINT LeftHandThumb3
										{
											OFFSET 6.496506 -3.750763 3.750761
											CHANNELS 3 Xrotation Yrotation Zrotation
											JOINT LeftHandThumb4
											{
												OFFSET 5.616882 -3.242905 3.242910
												CHANNELS 3 Xrotation Yrotation Zrotation
												End Site
												{
													OFFSET -1.254608 7.132141 0.375429
												}
											}
										}
									}
								}
								JOINT LeftHandPinky1
								{
									OFFSET 18.920792 -0.453171 -11.426712
									CHANNELS 3 Xrotation Yrotation Zrotation
									JOINT LeftHandPinky2
									{
										OFFSET 4.919586 0.000000 0.000000
										CHANNELS 3 Xrotation Yrotation Zrotation
										JOINT LeftHandPinky3
										{
											OFFSET 5.233047 0.000000 0.000000
											CHANNELS 3 Xrotation Yrotation Zrotation
											JOINT LeftHandPinky4
											{
												OFFSET 5.571716 0.000000 0.000000
												CHANNELS 3 Xrotation Yrotation Zrotation
												End Site
												{
													OFFSET -3.459808 4.342407 -0.466164
												}
											}
										}
									}
								}
								JOINT LeftHandRing1
								{
									OFFSET 22.726120 -0.094986 -6.500475
									CHANNELS 3 Xrotation Yrotation Zrotation
									JOINT LeftHandRing2
									{
										OFFSET 6.408615 0.000000 0.000000
										CHANNELS 3 Xrotation Yrotation Zrotation
										JOINT LeftHandRing3
										{
											OFFSET 6.150223 0.000000 0.000000
											CHANNELS 3 Xrotation Yrotation Zrotation
											JOINT LeftHandRing4
											{
												OFFSET 6.145386 0.000000 0.000000
												CHANNELS 3 Xrotation Yrotation Zrotation
												End Site
												{
													OFFSET -3.671402 4.923981 -0.202372
												}
											}
										}
									}
								}
								JOINT LeftHandMiddle1
								{
									OFFSET 23.373947 0.000000 0.000001
									CHANNELS 3 Xrotation Yrotation Zrotation
									JOINT LeftHandMiddle2
									{
										OFFSET 6.996567 0.000000 0.000000
										CHANNELS 3 Xrotation Yrotation Zrotation
										JOINT LeftHandMiddle3
										{
											OFFSET 7.015945 0.000000 0.000000
											CHANNELS 3 Xrotation Yrotation Zrotation
											JOINT LeftHandMiddle4
											{
												OFFSET 7.721573 0.000000 0.000000
												CHANNELS 3 Xrotation Yrotation Zrotation
												End Site
												{
													OFFSET -4.651108 6.158463 0.251582
												}
											}
										}
									}
								}
								JOINT LeftHandIndex1
								{
									OFFSET 21.310577 -0.490082 6.209344
									CHANNELS 3 Xrotation Yrotation Zrotation
									JOINT LeftHandIndex2
									{
										OFFSET 7.536453 0.000000 0.000000
										CHANNELS 3 Xrotation Yrotation Zrotation
										JOINT LeftHandIndex3
										{
											OFFSET 7.512344 0.000000 0.000000
											CHANNELS 3 Xrotation Yrotation Zrotation
											JOINT LeftHandIndex4
											{
												OFFSET 10.212402 0.000000 0.000001
												CHANNELS 3 Xrotation Yrotation Zrotation
												End Site
												{
													OFFSET -5.180801 8.690506 1.388433
												}
											}
										}
									}
								}
							}
						}
					}
				}
				JOINT RightShoulder
				{
					OFFSET -17.399500 24.608795 1.168800
					CHANNELS 3 Xrotation Yrotation Zrotation
					JOINT RightArm
					{
						OFFSET -18.980635 5.765305 1.818600
						CHANNELS 3 Xrotation Yrotation Zrotation
						JOINT RightForeArm
						{
							OFFSET -49.290169 0.000000 0.000000
							CHANNELS 3 Xrotation Yrotation Zrotation
							JOINT RightHand
							{
								OFFSET -31.562012 0.000000 0.000000
								CHANNELS 3 Xrotation Yrotation Zrotation
								JOINT RightHandThumb1
								{
									OFFSET -6.133995 -4.388519 7.076070
									CHANNELS 3 Xrotation Yrotation Zrotation
									JOINT RightHandThumb2
									{
										OFFSET -6.037666 -3.485840 3.485847
										CHANNELS 3 Xrotation Yrotation Zrotation
										JOINT RightHandThumb3
										{
											OFFSET -6.496506 -3.750763 3.750761
											CHANNELS 3 Xrotation Yrotation Zrotation
											JOINT RightHandThumb4
											{
												OFFSET -5.616882 -3.242905 3.242910
												CHANNELS 3 Xrotation Yrotation Zrotation
												End Site
												{
													OFFSET 1.254608 7.132141 0.375429
												}
											}
										}
									}
								}
								JOINT RightHandIndex1
								{
									OFFSET -21.310577 -0.490082 6.209344
									CHANNELS 3 Xrotation Yrotation Zrotation
									JOINT RightHandIndex2
									{
										OFFSET -7.536453 0.000000 0.000000
										CHANNELS 3 Xrotation Yrotation Zrotation
										JOINT RightHandIndex3
										{
											OFFSET -7.512344 0.000000 0.000000
											CHANNELS 3 Xrotation Yrotation Zrotation
											JOINT RightHandIndex4
											{
												OFFSET -10.212402 0.000000 0.000001
												CHANNELS 3 Xrotation Yrotation Zrotation
												End Site
												{
													OFFSET 5.180801 8.690506 1.388433
												}
											}
										}
									}
								}
								JOINT RightHandMiddle1
								{
									OFFSET -23.373947 0.000000 0.000001
									CHANNELS 3 Xrotation Yrotation Zrotation
									JOINT RightHandMiddle2
									{
										OFFSET -6.996567 0.000000 0.000000
										CHANNELS 3 Xrotation Yrotation Zrotation
										JOINT RightHandMiddle3
										{
											OFFSET -7.015945 0.000000 0.000000
											CHANNELS 3 Xrotation Yrotation Zrotation
											JOINT RightHandMiddle4
											{
												OFFSET -7.721573 0.000000 0.000000
												CHANNELS 3 Xrotation Yrotation Zrotation
												End Site
												{
													OFFSET 4.651108 6.158463 0.251582
												}
											}
										}
									}
								}
								JOINT RightHandRing1
								{
									OFFSET -22.726120 -0.094986 -6.500475
									CHANNELS 3 Xrotation Yrotation Zrotation
									JOINT RightHandRing2
									{
										OFFSET -6.408615 0.000000 0.000000
										CHANNELS 3 Xrotation Yrotation Zrotation
										JOINT RightHandRing3
										{
											OFFSET -6.150223 0.000000 0.000000
											CHANNELS 3 Xrotation Yrotation Zrotation
											JOINT RightHandRing4
											{
												OFFSET -6.145386 0.000000 0.000000
												CHANNELS 3 Xrotation Yrotation Zrotation
												End Site
												{
													OFFSET 3.671402 4.923981 -0.202372
												}
											}
										}
									}
								}
								JOINT RightHandPinky1
								{
									OFFSET -18.920792 -0.453171 -11.426712
									CHANNELS 3 Xrotation Yrotation Zrotation
									JOINT RightHandPinky2
									{
										OFFSET -4.919586 0.000000 0.000000
										CHANNELS 3 Xrotation Yrotation Zrotation
										JOINT RightHandPinky3
										{
											OFFSET -5.233047 0.000000 0.000000
											CHANNELS 3 Xrotation Yrotation Zrotation
											JOINT RightHandPinky4
											{
												OFFSET -5.571716 0.000000 0.000000
												CHANNELS 3 Xrotation Yrotation Zrotation
												End Site
												{
													OFFSET 3.459808 4.342407 -0.466164
												}
											}
										}
									}
								}
							}
						}
					}
				}
			}
		}
	}
	JOINT LeftUpLeg
	{
		OFFSET 19.899099 -7.885101 -3.429500
		CHANNELS 3 Xrotation Yrotation Zrotation
		JOINT LeftLeg
		{
			OFFSET 1.745560 -36.997807 10.304700
			CHANNELS 3 Xrotation Yrotation Zrotation
			JOINT LeftFoot
			{
				OFFSET -1.745558 -29.803308 -13.615400
				CHANNELS 3 Xrotation Yrotation Zrotation
				JOINT LeftToeBase
				{
					OFFSET 1.181900 -18.539904 15.226099
					CHANNELS 3 Xrotation Yrotation Zrotation
					JOINT LeftToe_End
					{
						OFFSET -0.863701 1.402801 16.534700
						CHANNELS 3 Xrotation Yrotation Zrotation
						End Site
						{
							OFFSET 0.000000 16.616566 0.000000
						}
					}
				}
			}
		}
	}
	JOINT RightUpLeg
	{
		OFFSET -19.899099 -7.885101 -3.429500
		CHANNELS 3 Xrotation Yrotation Zrotation
		JOINT RightLeg
		{
			OFFSET -1.745560 -36.997807 10.304700
			CHANNELS 3 Xrotation Yrotation Zrotation
			JOINT RightFoot
			{
				OFFSET 1.745558 -29.803308 -13.615400
				CHANNELS 3 Xrotation Yrotation Zrotation
				JOINT RightToeBase
				{
					OFFSET -1.181900 -18.539904 15.226099
					CHANNELS 3 Xrotation Yrotation Zrotation
					JOINT RightToe_End
					{
						OFFSET 0.863701 1.402801 16.534700
						CHANNELS 3 Xrotation Yrotation Zrotation
						End Site
						{
							OFFSET 0.000000 16.616566 0.000000
						}
					}
				}
			}
		}
	}
}
MOTION
Frames: 4
Frame Time: 0.033333
-3.882267 85.955200 1.532344 -4.088634 -2.156119 6.150204 8.211766 0.681791 6.508481 0.451979 -0.148081 1.950545 0.440240 -0.186724 1.961003 6.648184 0.309356 0.100511 -3.952234 7.479186 -11.158922 -0.000000 0.000000 -0.000000 -1.745708 -2.291468 -5.935730 -45.876294 6.090507 -5.533173 24.160392 -109.440435 17.967055 -6.856449 -3.278294 23.789221 34.154679 -21.043350 -11.595250 8.595034 32.464050 2.921542 -10.628116 -16.030650 8.477247 -0.000000 0.000002 -0.000001 0.141196 3.308592 -9.248103 0.566774 2.515782 -25.388313 0.188618 -1.476067 14.563410 -0.000000 0.000002 -0.000005 0.131320 3.247868 -9.217295 0.569059 2.520569 -25.440028 0.189341 -1.478881 14.591729 -0.000001 0.000001 -0.000002 0.137935 3.288496 -9.196822 0.570490 2.523589 -25.472806 0.188676 -1.476289 14.565614 -0.000002 -0.000001 0.000001 0.139199 3.296322 -9.172013 0.574182 2.531294 -25.556410 0.188654 -1.476221 14.564931 0.000002 0.000003 -0.000001 5.759522 -0.134319 1.339102 -59.846500 7.908913 14.322779 0.000553 85.375316 -0.000572 8.053775 10.628719 -0.191568 32.942371 22.571352 12.310262 8.681727 -34.343315 -3.481955 -8.218813 10.315296 -10.878289 0.000001 0.000001 -0.000000 0.100548 -2.978605 8.470278 0.457482 -2.014722 25.583775 0.150496 1.175611 -14.590310 -0.000001 -0.000001 -0.000001 0.098311 -2.964832 8.490652 0.453810 -2.007039 25.478971 0.150479 1.175477 -14.588644 0.000002 0.000003 -0.000009 0.090660 -2.913708 8.504203 0.453268 -2.005890 25.463545 0.150627 1.176084 -14.596534 -0.000001 -0.000000 -0.000003 0.074932 -2.842603 8.517391 0.451277 -2.001702 25.406579 0.150644 1.176156 -14.597485 0.000001 -0.000004 0.000005 -2.353719 31.323155 -10.093990 32.582929 -9.432525 9.797984 -21.242211 -11.555537 4.056621 0.771966 0.018042 -1.456567 0.000000 0.000000 -0.000000 -22.576938 -18.892351 -28.597990 36.884702 10.188469 -9.426588 -22.177862 16.968232 18.181929 -3.711043 -0.000000 -0.000004 0.000000 0.000000 -0.000000 
-4.538038 85.788353 1.656334 -4.201232 -1.237287 4.547767 7.813486 0.447012 6.447427 0.467628 -0.155678 1.814430 0.453613 -0.186916 1.834929 6.615258 0.273074 -0.065157 -3.442241 6.815397 -10.499523 -0.000000 0.000000 -0.000000 -1.317829 -2.455011 -5.769872 -48.241821 3.370624 -8.342968 15.251063 -108.011922 8.389386 -7.713614 -0.806055 20.368094 36.167563 -19.729374 -11.033560 9.122397 33.992345 3.074564 -10.432598 -12.218540 8.703012 -0.000001 0.000001 0.000001 0.291684 3.992858 -17.862029 0.589839 2.563764 -25.908685 0.188311 -1.474858 14.551334 -0.000002 0.000000 -0.000006 0.124338 3.433699 -16.999417 0.584742 2.553258 -25.794508 0.188368 -1.475093 14.553695 -0.000003 -0.000002 0.000005 0.251443 3.840117 -16.247528 0.605484 2.595712 -26.256482 0.188325 -1.474934 14.551969 0.000001 -0.000002 0.000004 0.277456 3.927244 -15.550891 0.645768 2.675720 -27.132240 0.188358 -1.475059 14.553233 0.000002 0.000001 -0.000001 5.458275 0.163902 1.316531 -58.817395 4.860868 13.914876 0.003788 88.505523 -0.003736 10.034783 10.055087 1.041627 35.979493 21.687953 12.178714 8.938548 -35.031996 -3.431119 -8.158697 8.571509 -10.617694 0.000003 -0.000002 0.000005 0.303070 -3.891556 13.553099 0.484813 -2.070773 26.350189 0.150301 1.174847 -14.580977 0.000001 -0.000000 -0.000006 0.152176 -3.270840 13.878435 0.446987 -1.992668 25.283709 0.150455 1.175440 -14.588384 -0.000001 0.000000 -0.000004 -0.099704 -2.268026 14.094684 0.415754 -1.925171 24.369925 0.150295 1.174803 -14.580412 -0.000000 -0.000001 -0.000000 -0.255286 -1.684834 14.300094 0.397660 -1.884738 23.825623 0.150212 1.174463 -14.576016 -0.000002 -0.000001 0.000004 -5.162686 30.894622 -6.282271 34.864899 -8.392638 9.979766 -22.430258 -12.927286 2.665921 0.659969 0.016250 -1.423550 0.000000 0.000000 -0.000000 -20.608243 -19.746693 -26.152859 36.572873 9.925897 -8.742482 -22.218093 16.065001 16.973123 -3.874696 -0.000000 0.000001 0.000000 -0.000000 -0.000000 
-5.491798 85.435753 1.797965 -4.460448 -0.503496 2.381347 7.457710 0.378847 6.031470 0.491893 -0.095858 1.586935 0.475393 -0.118214 1.621154 6.575607 0.235688 -0.240282 -2.923025 5.980013 -9.372620 -0.000000 0.000000 -0.000000 -0.636627 -2.629117 -5.134991 -51.804386 -0.129602 -11.291313 0.895168 -106.660255 -6.592547 -8.477371 1.906278 16.835856 39.207048 -17.656505 -10.030709 9.897721 36.362636 3.347445 -9.722914 -6.388797 8.947792 -0.000001 0.000001 -0.000001 0.668929 5.002598 -31.261059 0.626062 2.636974 -26.707305 0.188417 -1.475279 14.555610 -0.000000 -0.000000 0.000003 -0.033688 3.705792 -29.108791 0.608389 2.601569 -26.320329 0.188237 -1.474603 14.548545 0.000001 -0.000001 0.000005 0.527562 4.679776 -27.235741 0.668977 2.720507 -27.625472 0.188410 -1.475271 14.555365 0.000001 -0.000002 0.000001 0.615038 4.839074 -25.516765 0.765548 2.897325 -29.595777 0.188438 -1.475393 14.556538 -0.000000 0.000003 0.000001 4.989610 0.846547 1.255864 -57.211297 1.308026 13.351708 -0.000705 92.599545 0.000691 12.891357 9.201661 0.794833 40.493787 20.280749 11.439511 9.399825 -36.322260 -3.407028 -7.761042 5.494060 -10.318909 0.000002 0.000001 0.000003 0.829125 -5.122079 21.867892 0.536521 -2.172031 27.747573 0.150379 1.175137 -14.584715 0.000000 -0.000003 0.000003 0.283064 -3.779439 22.707869 0.441369 -1.980740 25.121921 0.150521 1.175670 -14.591314 0.000000 0.000000 0.000003 -0.725274 -1.444472 23.341605 0.371101 -1.823458 23.004789 0.150343 1.174991 -14.582536 -0.000000 -0.000001 -0.000002 -1.445610 0.100054 23.971343 0.330755 -1.725392 21.701873 0.150248 1.174594 -14.577502 -0.000001 -0.000001 -0.000003 -8.735311 30.555685 -1.091045 38.127158 -7.481522 10.153088 -24.150140 -14.382024 1.038556 0.487572 0.015731 -1.421567 -0.000000 0.000000 0.000000 -18.309203 -20.694635 -22.764288 36.487499 9.697827 -7.996910 -22.324176 15.266091 15.386857 -4.012183 0.000002 -0.000000 0.000000 0.000000 -0.000000 
-6.679848 84.998161 1.945076 -4.799618 0.118997 -0.212785 7.112595 0.399719 5.346721 0.523808 0.004139 1.286613 0.505223 -0.008323 1.336147 6.522271 0.198298 -0.426589 -2.376733 5.003701 -7.895037 -0.000001 0.000000 -0.000000 0.291990 -2.832835 -4.155276 -56.534688 -3.903516 -14.199495 -17.951472 -106.495524 -25.960497 -8.933029 4.599454 13.145977 43.258812 -14.734079 -8.644434 10.943264 39.681449 3.742597 -8.423892 1.675579 9.101919 0.000003 -0.000000 -0.000002 1.479636 6.279232 -49.878751 0.677761 2.737214 -27.809942 0.188694 -1.476340 14.566219 0.000002 -0.000002 -0.000008 -0.452556 4.339740 -45.893062 0.643398 2.671118 -27.081502 0.188583 -1.475910 14.561664 -0.000001 -0.000001 0.000003 1.112597 5.780092 -42.512320 0.766799 2.899514 -29.620543 0.188681 -1.476299 14.565706 -0.000001 -0.000000 0.000004 1.300237 5.957260 -39.404014 0.948868 3.198165 -33.042427 0.188678 -1.476314 14.565836 -0.000000 0.000003 0.000001 4.392882 1.797598 1.256110 -55.189260 -2.525731 12.755234 0.000069 97.336739 -0.000027 16.261313 8.107660 -0.434953 46.349899 18.168389 10.163458 10.135683 -38.465508 -3.446079 -6.900132 0.556974 -10.041744 0.000001 -0.000001 0.000002 1.916638 -6.456629 34.140243 0.626071 -2.334186 30.025040 0.150562 1.175825 -14.593324 0.000001 0.000000 -0.000001 0.580402 -4.524110 35.769817 0.440004 -1.977819 25.082026 0.150581 1.175896 -14.594034 0.000001 -0.000000 -0.000004 -2.149601 -0.930561 37.142101 0.326991 -1.715917 21.576600 0.150568 1.175817 -14.593131 -0.000000 -0.000003 -0.000000 -4.347380 1.663538 38.554820 0.261839 -1.541101 19.284431 0.150499 1.175528 -14.589417 -0.000000 -0.000000 0.000002 -12.647788 30.145334 5.070568 41.666394 -6.829643 10.186552 -26.218912 -15.933257 -0.706371 0.439618 0.015218 -1.444580 0.000000 -0.000000 -0.000000 -15.635145 -21.698070 -18.644350 36.275630 9.681514 -6.966415 -22.413964 14.605002 13.297865 -4.043600 -0.000000 -0.000002 0.000000 0.000000 -0.000000 
